<svg xmlns="http://www.w3.org/2000/svg" viewBox="0 0 160 160" role="img" aria-label="Retrato ilustrado de tarotista">
<defs>
  <radialGradient id="bg" cx="50%" cy="35%" r="75%"><stop offset="0" stop-color="#4f73dc" stop-opacity=".58"/><stop offset=".58" stop-color="#121c4f"/><stop offset="1" stop-color="#07050d"/></radialGradient>
  <linearGradient id="robe" x1="0" y1="0" x2="1" y2="1"><stop stop-color="#4f73dc"/><stop offset="1" stop-color="#91d7ff"/></linearGradient>
  <linearGradient id="hair" x1="0" y1="0" x2="0" y2="1"><stop stop-color="#120b1f"/><stop offset="1" stop-color="#4f73dc" stop-opacity=".7"/></linearGradient>
  <filter id="glow"><feGaussianBlur stdDeviation="4" result="b"/><feMerge><feMergeNode in="b"/><feMergeNode in="SourceGraphic"/></feMerge></filter>
</defs>
<rect width="160" height="160" rx="80" fill="url(#bg)"/>
<circle cx="80" cy="80" r="75" fill="none" stroke="#91d7ff" stroke-opacity=".55" stroke-width="2"/>
<g opacity=".9" filter="url(#glow)" fill="#91d7ff">
  <circle cx="29" cy="38" r="2"/><circle cx="133" cy="45" r="1.8"/><circle cx="122" cy="25" r="1.2"/><circle cx="37" cy="70" r="1.2"/>
</g>
<path d="M32 145c5-29 21-43 48-43s44 14 49 43" fill="url(#robe)" opacity=".92"/>
<path d="M49 109c-4-20-4-50 6-66 8-13 19-19 28-19 15 0 29 9 35 24 6 14 4 42-2 62-9-10-22-15-34-15-13 0-24 4-33 14z" fill="url(#hair)"/>
<ellipse cx="81" cy="66" rx="27" ry="34" fill="#d99576"/>
<path d="M54 62c0-21 11-37 29-37 13 0 28 8 33 28-13-5-23-11-32-19-5 10-15 19-30 22z" fill="#120b1f" opacity=".96"/>
<path d="M57 78c4 20 13 35 25 35 13 0 24-15 28-35-4 12-15 20-28 20-12 0-22-7-25-20z" fill="#d99576"/>
<path d="M66 64q6-5 12 0" fill="none" stroke="#6a3c34" stroke-width="2" stroke-linecap="round"/><path d="M88 64q6-5 12 0" fill="none" stroke="#6a3c34" stroke-width="2" stroke-linecap="round"/>
<ellipse cx="72" cy="68" rx="2.2" ry="3" fill="#1a2447"/><ellipse cx="94" cy="68" rx="2.2" ry="3" fill="#1a2447"/>
<path d="M78 83q5 4 10 0" fill="none" stroke="#9d5360" stroke-width="2.2" stroke-linecap="round"/>
<path d="M63 50c8-10 28-13 42 0" fill="none" stroke="#91d7ff" stroke-width="2" stroke-opacity=".85"/>
<path d="M80 33l4 7 8 1-6 5 2 8-8-4-8 4 2-8-6-5 8-1z" fill="#91d7ff" opacity=".95"/>
<circle cx="80" cy="114" r="7" fill="#0b0814" stroke="#91d7ff" stroke-width="2"/><circle cx="80" cy="114" r="2.3" fill="#91d7ff"/>
<path d="M49 129c18 8 46 8 65 0" fill="none" stroke="#fff" stroke-opacity=".18"/>
</svg>